<svg width="1200" height="1200" viewBox="0 0 1200 1200" xmlns="http://www.w3.org/2000/svg">
  <defs>
    <linearGradient id="grad" x1="0%" y1="0%" x2="100%" y2="100%">
      <stop offset="0%" stop-color="#47ff9f"/>
      <stop offset="100%" stop-color="#7c6dff"/>
    </linearGradient>
  </defs>
  <rect width="1200" height="1200" rx="80" fill="#11131f"/>
  <path d="M350 560c0-160 130-290 290-290s290 130 290 290-130 290-290 290-290-130-290-290z" fill="none" stroke="url(#grad)" stroke-width="40"/>
  <path d="M430 520c20-100 130-165 240-145s195 115 175 215c-20 100-130 165-240 145s-195-115-175-215z" fill="rgba(255,255,255,0.05)"/>
  <path d="M520 420c-40 20-70 70-50 110 20 40 70 60 110 40s70-70 50-110-70-60-110-40z" fill="url(#grad)" opacity="0.45"/>
  <path d="M580 430c-25 10-45 35-40 60 4 22 25 38 48 34s45-35 40-60-25-38-48-34z" fill="#fff" opacity="0.9"/>
  <path d="M560 450c-7 3-13 12-10 21 2 8 10 14 18 12 8-2 14-10 12-18-2-8-9-15-20-15z" fill="#11131f"/>
  <path d="M380 640c15-80 75-140 150-145 0 0 20-90 85-115s140 10 160 70 30 170-55 220c-85 50-210 50-260-15-20-25-55-55-80-30z" fill="none" stroke="url(#grad)" stroke-width="28"/>
  <path d="M390 770c-20 30-20 80 20 110 40 30 100 20 150 10s120-30 185-40c65-10 100-60 90-110s-60-70-95-50c-35 20-90 40-150 44s-130 10-180-4c-50-14-65 0-70 20z" fill="url(#grad)" opacity="0.2"/>
  <circle cx="520" cy="540" r="22" fill="#fff" opacity="0.9"/>
  <circle cx="650" cy="540" r="22" fill="#fff" opacity="0.9"/>
  <path d="M560 585c-15 30 10 60 40 60s55-30 40-60" fill="none" stroke="#fff" stroke-width="18" stroke-linecap="round"/>
  <path d="M240 420c45-45 160-110 300-130" stroke="#7c6dff" stroke-width="24" stroke-linecap="round" opacity="0.55"/>
  <path d="M900 260c-35 35-120 95-220 120" stroke="#47ff9f" stroke-width="24" stroke-linecap="round" opacity="0.55"/>
</svg>
